HIERARCHY
ROOT Hips
{
	OFFSET -3.958830 18.904000 13.208200
	CHANNELS 6 Xposition Yposition Zposition Zrotation Yrotation Xrotation 
	JOINT LHipJoint
	{
		OFFSET 0.000000 0.000000 0.000000
		CHANNELS 3 Zrotation Yrotation Xrotation
		JOINT LeftUpLeg
		{
			OFFSET 1.800000 -1.400000 0.085000
			CHANNELS 3 Zrotation Yrotation Xrotation
			JOINT LeftLeg
			{
				OFFSET 2.215000 -6.000000 0.000000
				CHANNELS 3 Zrotation Yrotation Xrotation
				JOINT LeftFoot
				{
					OFFSET 2.500000 -6.900000 0.000000
					CHANNELS 3 Zrotation Yrotation Xrotation
					JOINT LeftToeBase
					{
						OFFSET 0.200000 -0.500000 1.950000
						CHANNELS 3 Zrotation Yrotation Xrotation
						End Site
						{
							OFFSET 0.000000 0.000000 0.000000
						}
					}
				}
			}
		}
	}
	JOINT RHipJoint
	{
		OFFSET 0.000000 0.000000 0.000000
		CHANNELS 3 Zrotation Yrotation Xrotation
		JOINT RightUpLeg
		{
			OFFSET -1.800000 -1.400000 0.085000
			CHANNELS 3 Zrotation Yrotation Xrotation
			JOINT RightLeg
			{
				OFFSET -2.215000 -6.000000 0.000000
				CHANNELS 3 Zrotation Yrotation Xrotation
				JOINT RightFoot
				{
					OFFSET -2.500000 -6.900000 0.000000
					CHANNELS 3 Zrotation Yrotation Xrotation
					JOINT RightToeBase
					{
						OFFSET -0.200000 -0.500000 1.950000
						CHANNELS 3 Zrotation Yrotation Xrotation
						End Site
						{
							OFFSET 0.000000 0.000000 0.000000
						}
					}
				}
			}
		}
	}
	JOINT LowerBack
	{
		OFFSET 0.000000 0.000000 0.000000
		CHANNELS 3 Zrotation Yrotation Xrotation
		JOINT Spine
		{
			OFFSET -0.087000 1.940000 -0.288900
			CHANNELS 3 Zrotation Yrotation Xrotation
			JOINT Spine1
			{
				OFFSET 0.000000 1.950000 0.060000
				CHANNELS 3 Zrotation Yrotation Xrotation
				JOINT Neck
				{
					OFFSET 0.000000 0.000000 0.000000
					CHANNELS 3 Zrotation Yrotation Xrotation
					JOINT Neck1
					{
						OFFSET 0.000000 1.600000 0.340000
						CHANNELS 3 Zrotation Yrotation Xrotation
						JOINT Head
						{
							OFFSET 0.000000 1.667000 -0.240000
							CHANNELS 3 Zrotation Yrotation Xrotation
							End Site
							{
								OFFSET 0.000000 0.000000 0.000000
							}
						}
					}
				}
				JOINT LeftShoulder
				{
					OFFSET 0.000000 0.000000 0.000000
					CHANNELS 3 Zrotation Yrotation Xrotation
					JOINT LeftArm
					{
						OFFSET 2.700000 1.550000 -0.730000
						CHANNELS 3 Zrotation Yrotation Xrotation
						JOINT LeftForeArm
						{
							OFFSET 5.450000 0.000000 0.000000
							CHANNELS 3 Zrotation Yrotation Xrotation
							JOINT LeftHand
							{
								OFFSET 3.450000 0.000000 0.000000
								CHANNELS 3 Zrotation Yrotation Xrotation
								JOINT LeftHandIndex1
								{
									OFFSET 0.750000 0.000000 0.000000
									CHANNELS 3 Zrotation Yrotation Xrotation
									End Site
									{
										OFFSET 0.000000 0.000000 0.000000
									}
								}
							}
						}
					}
				}
				JOINT RightShoulder
				{
					OFFSET 0.000000 0.000000 0.000000
					CHANNELS 3 Zrotation Yrotation Xrotation
					JOINT RightArm
					{
						OFFSET -2.700000 1.550000 -0.730000
						CHANNELS 3 Zrotation Yrotation Xrotation
						JOINT RightForeArm
						{
							OFFSET -5.450000 0.000000 0.000000
							CHANNELS 3 Zrotation Yrotation Xrotation
							JOINT RightHand
							{
								OFFSET -3.450000 0.000000 0.000000
								CHANNELS 3 Zrotation Yrotation Xrotation
								JOINT RightHandIndex1
								{
									OFFSET -0.750000 0.000000 0.000000
									CHANNELS 3 Zrotation Yrotation Xrotation
									End Site
									{
										OFFSET 0.000000 0.000000 0.000000
									}
								}
							}
						}
					}
				}
			}
		}
	}
}
MOTION
Frames: 10
Frame Time: 0.016667
0.280800 17.177600 -1.482820 -4.563257 -2.187412 6.890308 -15.282334 14.894427 4.042576 0.800424 -1.925982 -14.663398 -8.253290 4.280516 4.450253 0.208257 2.738199 3.456678 0.472070 0.403980 0.550050 17.755606 -9.943082 3.617669 2.709054 1.651391 -12.920263 5.350974 -2.401831 2.699625 -0.216536 -1.896323 3.592166 -0.025130 -0.314820 0.124200 -2.653866 -5.827061 -9.303035 19.290068 -3.256573 8.962549 -7.342586 4.538657 -33.070117 5.039067 -4.045724 -19.085311 -18.413263 9.586480 73.926481 -1.864960 -0.248270 12.942070 1.268480 3.044175 4.059578 -6.422256 7.254375 6.227578 115.796175 -11.146294 -0.998857 -3.237215 3.304490 0.316320 -0.293610 0.456810 0.074860 -7.827087 7.483130 11.214985 15.898263 -11.831575 -1.770875 -120.994029 7.270999 -1.135096 3.025819 -2.390151 0.253070 -0.174670 -0.404100 0.094970 
0.275130 17.189800 -1.494340 -4.608611 -2.272814 7.091200 -15.315266 14.930843 4.078876 0.875600 -1.972535 -14.847215 -8.343686 4.244771 4.157704 0.213850 2.757833 3.462882 0.450280 0.371730 0.530910 17.713144 -9.925157 3.608938 2.622674 1.776382 -13.336480 5.434092 -2.427375 3.129510 -0.189893 -1.885808 3.601721 -0.038640 -0.286430 0.136260 -2.545933 -5.940448 -9.352067 18.767971 -3.438851 9.290188 -6.482845 4.737768 -33.674207 5.152011 -4.086285 -19.048573 -18.202182 9.460175 73.050739 -1.957890 -0.013020 13.948340 1.696936 3.345035 3.829429 -6.369893 6.591385 6.236432 115.873727 -9.671431 1.374332 -3.275866 3.342113 0.300410 -0.266690 0.433760 0.079110 -8.289322 7.381091 11.252921 14.914435 -11.232918 -1.306990 -120.592442 7.532949 -1.391305 3.019393 -2.394348 0.244960 -0.185890 -0.395200 0.097960 
0.271560 17.200410 -1.525530 -4.636869 -2.409737 6.737937 -15.354618 14.987413 4.080542 0.775680 -1.976038 -14.727716 -8.113564 4.241573 4.319242 0.168626 2.788831 3.448512 0.429040 0.327890 0.545780 17.667916 -9.909038 3.587519 2.166910 1.761517 -13.224885 6.104940 -2.601329 3.535163 -0.191695 -1.923037 3.572724 -0.050570 -0.293290 0.138620 -2.421273 -6.096239 -9.351405 18.233018 -3.786960 10.196694 -6.094472 4.870934 -33.808100 5.611983 -3.757275 -19.040986 -17.555229 9.279279 73.714501 -3.011990 0.758270 13.869300 1.513696 3.407356 3.409656 -4.959776 6.223483 6.377579 115.489421 -8.819735 2.938759 -3.296691 3.317341 0.331300 -0.265000 0.430770 0.048910 -8.788251 7.222813 11.583382 14.964589 -12.020677 -1.151439 -120.496434 10.044776 -5.573242 2.977092 -2.342075 0.218490 -0.182460 -0.367950 0.067590 
0.257870 17.204400 -1.562510 -4.296189 -2.133650 5.695702 -15.369550 14.978963 4.045637 0.639852 -1.923411 -14.185000 -7.722660 4.252887 4.786148 0.193217 2.702743 3.448875 0.499100 0.417810 0.630700 17.646507 -10.013717 3.543808 1.772994 1.564947 -12.876240 5.955974 -2.712160 4.282807 -0.241641 -1.911727 3.565663 -0.025330 -0.388440 0.121000 -2.366334 -5.927370 -9.295421 16.479986 -4.399805 11.756722 -5.220426 4.470992 -33.577527 5.742773 -3.247887 -18.906396 -16.527356 8.912880 74.906593 -3.015960 1.099380 11.606660 1.147370 3.244187 3.028700 -2.395856 6.775531 6.368363 115.292126 -9.407667 2.546128 -3.216166 3.297961 0.359270 -0.329500 0.502100 0.041550 -8.608644 6.621269 12.006900 14.364692 -14.736799 -0.669365 -120.657167 16.541249 -16.341006 2.922902 -2.228334 0.258000 -0.193260 -0.429250 0.054460 
0.264240 17.213550 -1.608380 -4.785546 -2.971865 3.277189 -15.418030 15.098682 3.954958 1.725783 -1.596100 -12.488411 -7.791708 4.586589 5.840565 0.193977 2.883442 3.356273 0.569040 0.461390 0.736430 17.608257 -10.028354 3.438535 1.903331 1.284111 -11.781450 5.767798 -3.067472 6.504263 -0.316578 -1.964655 3.504005 -0.009100 -0.510200 0.119870 -2.215945 -6.126288 -9.133338 16.196856 -4.643092 14.770488 -4.864986 4.435306 -31.891354 6.498341 -2.708912 -18.849700 -15.676438 8.334263 77.179021 -5.150520 1.370450 7.853970 -0.727202 2.352508 2.630540 1.003477 9.793737 6.131070 116.244577 -12.650695 -2.204865 -3.091449 3.231141 0.455440 -0.421540 0.585580 0.014330 -8.116839 7.338559 12.895027 12.288064 -18.543448 -0.383714 -119.917840 24.959716 -29.887121 2.849849 -2.023936 0.270470 -0.203530 -0.465460 0.007190 
0.266320 17.222260 -1.701950 -5.012176 -3.875238 -0.561861 -15.434108 15.158022 3.801002 2.576214 -1.143536 -9.790333 -7.300764 4.938670 7.238323 0.254832 3.062254 3.266330 0.626330 0.502360 0.822510 17.619394 -10.111360 3.297833 1.594137 0.855717 -10.142382 5.804500 -3.602909 9.169282 -0.403160 -2.148200 3.401225 -0.010310 -0.638280 0.112460 -2.181571 -6.082735 -8.847543 15.490058 -4.930831 20.196204 -5.143455 3.695080 -29.609150 6.960414 -2.314949 -18.996893 -14.905397 7.893879 78.161121 -6.218230 1.503770 4.214030 -1.463142 1.393660 2.584078 2.555212 12.816599 5.148699 119.111584 -16.135481 -9.124449 -2.945077 3.231830 0.523100 -0.520200 0.660160 -0.012100 -8.413932 8.077988 13.932656 10.873178 -21.944326 -0.210037 -119.197100 34.342031 -44.920646 2.821795 -1.800632 0.302730 -0.244990 -0.511760 -0.025340 
0.287150 17.231700 -1.846060 -6.091600 -3.986366 -6.622359 -15.370738 15.182429 3.568286 4.592131 -0.496360 -5.514051 -6.590675 5.505995 9.169242 0.428062 3.451098 3.148179 0.645890 0.507800 0.840300 17.733285 -10.217810 3.120715 1.618389 0.408721 -7.698402 5.648954 -4.544544 14.165750 -0.511071 -2.621123 3.213305 -0.045500 -0.698550 0.120280 -2.438593 -5.902351 -8.427366 17.158718 -6.624872 29.340698 -7.399776 1.668927 -25.915592 6.916459 -3.072766 -18.776793 -16.805778 8.421599 74.069744 -5.213730 1.011030 1.215640 -2.334918 0.300219 2.832092 3.067580 17.022388 3.019343 123.352442 -20.248331 -20.879455 -2.818226 3.274283 0.537140 -0.590120 0.693730 -0.004970 -8.097149 9.192403 14.514634 9.526385 -24.915187 -1.145857 -119.060193 42.292060 -59.427153 2.855746 -1.635963 0.346640 -0.305450 -0.557410 -0.012420 
0.311400 17.239540 -2.085590 -6.283156 -3.933964 -17.903646 -15.256986 14.918605 3.423465 6.682220 0.734212 4.057364 -5.937548 6.509209 10.902260 0.750014 4.273475 2.916763 0.609510 0.491370 0.817410 17.913012 -10.557959 2.876263 -0.100795 -0.177959 -2.496545 5.126173 -6.244866 22.147925 -0.746851 -3.746895 2.860425 -0.117990 -0.763350 0.106880 -2.869647 -4.886955 -8.126886 15.973962 -8.461909 44.795323 -8.226884 -0.858058 -16.020769 6.375681 -3.517512 -17.944217 -16.719987 6.560995 67.180775 -3.415740 -0.062610 -9.666940 -3.522930 -2.592451 3.881630 -0.558051 21.548359 -2.513089 130.132962 -21.237381 -37.259091 -2.739038 3.320779 0.578980 -0.680570 0.739130 -0.026440 -7.430899 10.480647 14.210971 12.795208 -27.857234 -6.881598 -120.277071 45.138433 -72.693672 2.932206 -1.594617 0.381080 -0.320450 -0.567010 -0.003480 
0.332000 17.245020 -2.288980 -6.411533 -3.528745 -25.577775 -15.132285 14.598842 3.294800 7.587983 1.384834 9.499436 -4.663387 7.126321 13.321811 0.992029 4.810338 2.847603 0.495890 0.399370 0.727070 18.068088 -10.926043 2.725123 -1.567894 0.450047 -1.862636 4.969175 -7.895613 31.083655 -0.898829 -4.944680 2.525367 -0.197060 -0.677540 0.099800 -3.275745 -3.735386 -7.896030 15.428108 -9.347416 51.416293 -8.042541 -3.170795 2.943138 5.768457 -3.985578 -16.495381 -14.541816 2.486328 53.143805 -4.109150 0.312040 -17.200050 -2.780186 -6.246541 6.093806 -8.641448 23.050823 -9.181463 135.124823 -21.770005 -57.992402 -2.819840 3.390647 0.505650 -0.635110 0.676490 -0.005660 -8.271693 11.314873 12.908040 18.611619 -26.463242 -14.606546 -120.998643 44.310665 -82.377161 2.969164 -1.799813 0.363200 -0.300690 -0.557390 0.035940 
0.341480 17.289200 -2.414400 -6.796149 -2.167751 -26.440751 -15.137024 14.627957 3.009513 6.906740 1.257645 7.195744 -2.261846 6.827356 16.920238 0.896785 4.745520 2.888639 0.398920 0.285760 0.657420 18.089734 -10.958034 2.689810 -2.114753 2.078443 -7.781966 5.178232 -9.470351 40.016730 -0.981157 -5.965389 2.154610 -0.234700 -0.588010 0.129170 -3.326699 -3.592549 -7.643678 14.486369 -9.614792 50.449816 -6.631335 -5.011913 15.111479 5.375266 -4.887389 -15.504831 -14.170927 1.311896 44.187942 -4.685460 1.398610 -20.389500 -1.040258 -6.436935 8.276832 -15.302830 21.514149 -10.665912 138.888812 -28.862192 -85.579696 -2.975911 3.407845 0.450120 -0.554000 0.579830 -0.038570 -9.027864 10.049004 11.180791 20.130542 -21.517068 -16.788939 -124.966209 42.855639 -90.644656 2.914182 -1.992034 0.321590 -0.320800 -0.487370 0.026780 
